<svg width="90" height="250" viewBox="0 0 90 250" fill="none" xmlns="http://www.w3.org/2000/svg">
<path fill-rule="evenodd" clip-rule="evenodd" d="M0 83.3333C0 37.3096 40.2944 0 90 0L90 29.321C57.7834 29.321 31.6667 53.5031 31.6667 83.3333C31.6667 89.4618 32.769 95.352 34.8001 100.843C50.0422 89.8687 69.1968 83.3333 90 83.3333L90 112.654C75.898 112.654 62.9647 117.288 52.879 125C62.9647 132.712 75.898 137.346 90 137.346V166.667C69.1968 166.667 50.0422 160.131 34.8001 149.157C32.769 154.648 31.6667 160.538 31.6667 166.667C31.6667 196.497 57.7834 220.679 90 220.679V250C40.2944 250 0 212.69 0 166.667C0 151.488 4.38274 137.257 12.0404 125C4.38274 112.743 0 98.512 0 83.3333Z" fill="#004C4C"/>
</svg>


